HIERARCHY
ROOT Hips
{
	OFFSET -0.001795 -0.223333 0.028219
	CHANNELS 6 Xposition Yposition Zposition Zrotation Yrotation Xrotation 
	JOINT LeftUpLeg
	{
		OFFSET 0.069520 -0.091406 -0.006815
		CHANNELS 3 Zrotation Yrotation Xrotation
		JOINT LeftLeg
		{
			OFFSET 0.034277 -0.375199 -0.004496
			CHANNELS 3 Zrotation Yrotation Xrotation
			JOINT LeftFoot
			{
				OFFSET -0.013596 -0.397961 -0.043693
				CHANNELS 3 Zrotation Yrotation Xrotation
				JOINT LeftToe
				{
					OFFSET 0.026358 -0.055791 0.119288
					CHANNELS 3 Zrotation Yrotation Xrotation
					End Site
					{
						OFFSET 0.000000 0.000000 0.000000
					}
				}
			}
		}
	}
	JOINT RightUpLeg
	{
		OFFSET -0.067670 -0.090522 -0.004320
		CHANNELS 3 Zrotation Yrotation Xrotation
		JOINT RightLeg
		{
			OFFSET -0.038290 -0.382569 -0.008850
			CHANNELS 3 Zrotation Yrotation Xrotation
			JOINT RightFoot
			{
				OFFSET 0.015774 -0.398415 -0.042312
				CHANNELS 3 Zrotation Yrotation Xrotation
				JOINT RightToe
				{
					OFFSET -0.025372 -0.048144 0.123348
					CHANNELS 3 Zrotation Yrotation Xrotation
					End Site
					{
						OFFSET 0.000000 0.000000 0.000000
					}
				}
			}
		}
	}
	JOINT Spine
	{
		OFFSET -0.002533 0.108963 -0.026696
		CHANNELS 3 Zrotation Yrotation Xrotation
		JOINT Spine1
		{
			OFFSET 0.005487 0.135180 0.001092
			CHANNELS 3 Zrotation Yrotation Xrotation
			JOINT Spine2
			{
				OFFSET 0.001457 0.052922 0.025425
				CHANNELS 3 Zrotation Yrotation Xrotation
				JOINT Neck
				{
					OFFSET -0.002778 0.213870 -0.042857
					CHANNELS 3 Zrotation Yrotation Xrotation
					JOINT Head
					{
						OFFSET 0.005152 0.064970 0.051349
						CHANNELS 3 Zrotation Yrotation Xrotation
						End Site
						{
							OFFSET 0.000000 0.000000 0.000000
						}
					}
				}
				JOINT LeftShoulder
				{
					OFFSET 0.078845 0.121749 -0.034090
					CHANNELS 3 Zrotation Yrotation Xrotation
					JOINT LeftArm
					{
						OFFSET 0.090977 0.030469 -0.008868
						CHANNELS 3 Zrotation Yrotation Xrotation
						JOINT LeftForeArm
						{
							OFFSET 0.259612 -0.012772 -0.027456
							CHANNELS 3 Zrotation Yrotation Xrotation
							JOINT LeftHand
							{
								OFFSET 0.249234 0.008986 -0.001171
								CHANNELS 3 Zrotation Yrotation Xrotation
								End Site
								{
									OFFSET 0.000000 0.000000 0.000000
								}
							}
						}
					}
				}
				JOINT RightShoulder
				{
					OFFSET -0.081759 0.118833 -0.038615
					CHANNELS 3 Zrotation Yrotation Xrotation
					JOINT RightArm
					{
						OFFSET -0.096012 0.032551 -0.009143
						CHANNELS 3 Zrotation Yrotation Xrotation
						JOINT RightForeArm
						{
							OFFSET -0.253742 -0.013329 -0.021401
							CHANNELS 3 Zrotation Yrotation Xrotation
							JOINT RightHand
							{
								OFFSET -0.255298 0.007772 -0.005559
								CHANNELS 3 Zrotation Yrotation Xrotation
								End Site
								{
									OFFSET 0.000000 0.000000 0.000000
								}
							}
						}
					}
				}
			}
		}
	}
}
MOTION
Frames: 15
Frame Time: 0.050000
0.017306 0.938417 0.038943 -1.844359 1.125091 1.334210 6.135750 0.132431 6.868656 -0.252172 0.023241 0.114863 3.224812 7.951657 3.892967 0.000000 0.000000 0.000000 -4.552660 0.131585 -0.386921 -7.040552 1.045119 2.846572 7.166830 11.642245 8.532801 0.000000 0.000000 0.000000 5.089882 2.517435 -31.253756 -0.287065 0.327004 -7.110431 -11.125132 5.517191 -3.244624 6.648818 -3.227301 -8.891888 0.000000 0.000000 0.000000 17.452666 9.428380 1.844608 -67.673136 -25.778137 4.645065 126.698179 -45.660590 -79.978590 0.000000 0.000000 0.000000 -13.965860 -15.314739 -3.287330 69.982228 8.611133 2.668519 -139.830149 29.463308 -57.822951 0.000000 0.000000 0.000000 
0.016521 0.937727 0.042124 -1.817754 1.652432 1.656544 6.177099 0.107495 6.748791 -0.087479 0.012885 -0.108962 3.046603 7.583489 3.751671 0.000000 0.000000 0.000000 -4.753684 0.133990 -0.390512 -6.531633 0.979897 2.843224 6.856221 11.273265 8.186038 0.000000 0.000000 0.000000 4.569575 2.380491 -32.239873 0.182419 0.126111 -6.449625 -11.424884 4.653289 -3.858179 6.302559 -3.185058 -8.033177 0.000000 0.000000 0.000000 18.797226 8.579066 2.261532 -68.738874 -30.682793 8.041374 125.560418 -40.134664 -70.840607 0.000000 0.000000 0.000000 -15.189355 -15.231288 -2.953418 70.984456 9.537640 3.316633 -139.450005 28.606910 -56.253043 0.000000 0.000000 0.000000 
0.014814 0.939083 0.045117 -1.948600 1.664714 1.791714 6.073013 0.113794 6.762736 0.541590 -0.053065 -0.113181 3.002261 7.663439 4.303111 0.000000 0.000000 0.000000 -4.445637 0.125977 -0.333071 -6.577852 0.980484 2.789252 6.940278 11.208908 8.545821 0.000000 0.000000 0.000000 4.222868 2.298421 -32.478198 0.300431 0.067115 -6.122305 -10.837222 3.751341 -4.695980 5.765848 -3.061759 -6.969050 0.000000 0.000000 0.000000 19.429125 7.645664 2.410363 -69.980668 -35.100150 11.695165 125.237587 -35.708271 -63.695973 0.000000 0.000000 0.000000 -16.506554 -15.107770 -2.480917 72.819688 9.414669 3.143033 -140.120654 28.941688 -58.754574 0.000000 0.000000 0.000000 
0.012596 0.939100 0.047781 -2.193642 2.055461 2.042097 6.752935 0.043793 6.769539 0.226931 -0.006693 -0.472324 2.805782 7.341327 4.421506 0.000000 0.000000 0.000000 -4.291329 0.121038 -0.311431 -6.013066 0.900256 2.713057 6.777733 10.954126 8.473373 0.000000 0.000000 0.000000 3.397006 2.017371 -32.483003 0.795877 -0.142018 -5.885896 -10.730352 2.796377 -5.645481 5.493630 -3.182964 -5.421910 0.000000 0.000000 0.000000 20.504984 6.481339 2.729663 -71.552675 -38.421847 14.757388 124.466316 -31.880528 -57.008477 0.000000 0.000000 0.000000 -17.001336 -15.014243 -2.192081 74.507182 7.732240 1.906846 -140.914880 30.226803 -63.149152 0.000000 0.000000 0.000000 
0.010249 0.938707 0.049390 -2.192482 2.141879 2.299190 6.998996 0.011934 6.582091 0.094733 0.007421 -0.493203 2.775743 7.296267 4.454253 0.000000 0.000000 0.000000 -4.284414 0.133509 -0.475702 -5.734643 0.865316 2.734016 6.671484 10.925533 8.193678 0.000000 0.000000 0.000000 3.038962 1.913133 -32.624212 1.129843 -0.307965 -5.233519 -10.695756 1.908475 -6.167295 5.419815 -3.245917 -4.876569 0.000000 0.000000 0.000000 21.435093 6.017671 2.849437 -74.054183 -40.673192 17.555226 123.744020 -30.238611 -53.437429 0.000000 0.000000 0.000000 -17.158356 -14.821159 -1.948461 75.840917 6.730438 0.938447 -142.382106 32.109664 -69.524114 0.000000 0.000000 0.000000 
0.008532 0.938723 0.049889 -1.941972 2.063777 2.690011 7.014495 -0.002998 6.175854 -0.257527 0.041448 -0.451068 2.763298 7.329283 4.648944 0.000000 0.000000 0.000000 -4.635857 0.193670 -1.267107 -5.402678 0.880049 3.433584 6.615392 10.973125 7.931830 0.000000 0.000000 0.000000 2.689163 1.778983 -31.761773 0.937832 -0.206347 -5.751400 -10.136016 1.578123 -5.964888 5.641690 -3.687373 -3.459615 0.000000 0.000000 0.000000 21.716337 5.123269 2.891254 -75.506045 -41.837354 19.224148 123.044796 -28.721748 -50.210591 0.000000 0.000000 0.000000 -16.864427 -15.027156 -1.946576 77.189333 5.530263 -0.184698 -144.808438 33.963004 -77.065795 0.000000 0.000000 0.000000 
0.007519 0.938856 0.049346 -1.804155 2.328794 2.971007 7.131395 -0.039525 5.506370 -0.523660 0.053936 0.015336 2.653887 7.133706 4.646954 0.000000 0.000000 0.000000 -4.684741 0.224746 -1.763545 -5.392684 0.912925 3.829435 6.443720 10.717122 7.797703 0.000000 0.000000 0.000000 2.235859 1.590138 -31.058008 1.088383 -0.264003 -5.779429 -9.955115 1.095728 -5.530486 5.409876 -3.568030 -3.260758 0.000000 0.000000 0.000000 22.018847 4.584198 2.894272 -76.938345 -42.449660 20.426757 121.009246 -28.597977 -48.006232 0.000000 0.000000 0.000000 -16.365574 -15.121578 -2.000543 77.691600 5.730966 -0.297950 -146.167678 36.303960 -83.714306 0.000000 0.000000 0.000000 
0.007190 0.939085 0.048390 -1.480264 2.201857 3.278523 6.997715 -0.039549 5.151921 -0.934488 0.097595 -0.013062 2.643044 7.168918 4.842876 0.000000 0.000000 0.000000 -4.991633 0.251885 -2.106856 -5.476537 0.913459 3.714483 6.470247 10.759375 7.801245 0.000000 0.000000 0.000000 2.363617 1.596646 -30.253611 0.829484 -0.173563 -5.376384 -9.783849 1.156981 -5.447531 5.707644 -3.937390 -2.482071 0.000000 0.000000 0.000000 22.138999 4.386407 2.917179 -77.674089 -43.224939 21.368737 119.258340 -28.463133 -46.337008 0.000000 0.000000 0.000000 -15.856075 -14.754957 -2.024141 77.952879 6.866441 0.476381 -146.589722 38.757629 -88.727029 0.000000 0.000000 0.000000 
0.007398 0.939141 0.047772 -1.272375 2.251945 3.436090 6.958338 -0.047689 4.852558 -1.273950 0.129376 0.126073 2.592015 7.085152 4.872350 0.000000 0.000000 0.000000 -5.152378 0.277544 -2.526564 -5.601920 0.966689 4.127984 6.395664 10.666869 7.703346 0.000000 0.000000 0.000000 2.691351 1.615388 -29.185988 0.637100 -0.087299 -5.489429 -9.975512 1.238890 -5.091682 6.040689 -4.519766 -0.851387 0.000000 0.000000 0.000000 20.460327 3.714341 2.717939 -75.523470 -43.318879 20.674789 118.579004 -29.322173 -47.208819 0.000000 0.000000 0.000000 -14.392275 -14.230327 -2.236688 77.056967 8.065887 1.297651 -146.867845 40.155046 -91.258078 0.000000 0.000000 0.000000 
0.007955 0.939362 0.047902 -0.870602 2.293698 3.826583 6.796351 -0.050385 4.568955 -1.813325 0.190088 -0.119567 2.482501 6.952236 5.095789 0.000000 0.000000 0.000000 -5.663052 0.307764 -3.003074 -5.527298 0.969509 4.296768 6.338762 10.559969 7.683730 0.000000 0.000000 0.000000 2.847361 1.631246 -28.943092 0.506491 -0.073021 -4.376298 -10.140377 1.160077 -5.466088 6.837811 -5.292301 -0.059241 0.000000 0.000000 0.000000 20.264729 3.106873 2.787470 -73.427186 -44.989856 21.272124 115.343161 -27.850345 -42.923296 0.000000 0.000000 0.000000 -14.117941 -13.467313 -2.112808 76.779858 9.958498 2.670243 -145.210285 40.852322 -89.732814 0.000000 0.000000 0.000000 
0.008751 0.939521 0.048940 -0.517858 2.481712 4.223160 6.438705 -0.041341 4.355904 -1.884651 0.202285 -0.443517 2.346387 6.765248 5.275896 0.000000 0.000000 0.000000 -6.256331 0.330984 -3.469289 -5.196401 0.946667 4.603645 6.228234 10.356836 7.656595 0.000000 0.000000 0.000000 2.879147 1.597822 -28.629736 0.541795 -0.086423 -4.367857 -9.858202 1.011478 -4.921887 6.922342 -5.482994 0.451043 0.000000 0.000000 0.000000 20.008074 2.586377 2.750843 -69.698100 -47.554858 21.848288 112.034115 -25.476024 -37.447588 0.000000 0.000000 0.000000 -13.882027 -13.055361 -2.057615 75.685920 11.740037 3.725949 -144.459994 41.561943 -89.549287 0.000000 0.000000 0.000000 
0.009448 0.939895 0.050783 -0.317218 3.103865 4.576234 6.357141 -0.062381 4.051868 -1.961966 0.209760 -0.587838 2.033038 6.261589 5.411318 0.000000 0.000000 0.000000 -6.593589 0.320668 -3.351603 -4.899657 0.874000 4.234415 5.989552 9.815906 7.783958 0.000000 0.000000 0.000000 2.460635 1.432740 -28.644041 0.810968 -0.240412 -3.302631 -9.413629 0.324708 -5.393550 6.853115 -5.663281 1.643842 0.000000 0.000000 0.000000 21.189498 1.972922 2.948981 -66.905702 -50.757831 23.236155 109.285021 -22.829978 -32.300737 0.000000 0.000000 0.000000 -14.600575 -12.136571 -1.638780 75.945799 13.005975 4.496160 -144.497211 41.694172 -90.234704 0.000000 0.000000 0.000000 
0.009874 0.940028 0.053424 -0.444165 3.455378 5.077306 6.478953 -0.085382 4.052811 -1.844243 0.211171 -1.381491 1.862056 6.023358 5.588846 0.000000 0.000000 0.000000 -6.570831 0.332346 -3.556903 -4.624685 0.821789 4.074801 5.859333 9.488144 7.918938 0.000000 0.000000 0.000000 2.393327 1.386612 -28.890035 1.929183 -0.732347 -3.295882 -9.418439 0.146176 -5.502192 7.192863 -6.111696 2.431920 0.000000 0.000000 0.000000 22.338564 1.798467 3.160772 -61.746222 -53.369517 22.620408 106.291528 -20.303998 -27.747902 0.000000 0.000000 0.000000 -15.114229 -11.999725 -1.516697 75.795513 12.215393 3.944960 -145.256126 43.250199 -93.935238 0.000000 0.000000 0.000000 
0.009972 0.939965 0.056430 -0.813718 3.920852 5.403604 6.955336 -0.127214 4.380589 -1.793469 0.223413 -2.429333 1.650540 5.701906 5.718186 0.000000 0.000000 0.000000 -6.351632 0.338565 -3.687109 -4.149767 0.760191 4.163379 5.696128 9.133209 8.005766 0.000000 0.000000 0.000000 2.054530 1.264701 -29.064398 3.172594 -1.295694 -3.077233 -8.859540 -0.627158 -5.636675 7.779124 -6.787708 3.433190 0.000000 0.000000 0.000000 24.000101 1.431946 3.318188 -56.426778 -54.052828 20.811536 104.630022 -17.626458 -23.588073 0.000000 0.000000 0.000000 -16.106806 -12.349495 -1.281097 77.032554 10.442412 2.479035 -148.982674 44.429177 -102.442992 0.000000 0.000000 0.000000 
0.009782 0.940212 0.059442 -1.225645 3.982512 5.744148 7.284158 -0.158164 4.503152 -1.533427 0.214203 -3.024238 1.643811 5.757895 5.911920 0.000000 0.000000 0.000000 -5.939915 0.361050 -3.971092 -4.000308 0.747141 4.294845 5.713569 9.062478 8.200288 0.000000 0.000000 0.000000 1.745750 1.180015 -28.865598 4.689199 -2.005363 -2.707186 -8.173070 -1.158549 -6.267684 8.372639 -7.596307 5.015259 0.000000 0.000000 0.000000 24.593241 1.424256 3.303927 -48.786699 -52.472233 16.784021 104.844783 -14.748782 -20.077937 0.000000 0.000000 0.000000 -16.638431 -13.802498 -1.297005 77.976328 6.829422 -0.390413 -156.006997 45.096293 -116.801254 0.000000 0.000000 0.000000 
